# xmcd CD database file generated by OrangeCD 5.2
#
# Track frame offsets:
#	150
#	15572
#	29422
#	41467
#	52080
#	64820
#	77992
#	89942
#	103385
#	116940
#	129792
#	141960
#	154220
#	167070
#	180880
#	193537
#
# Disc length: 2740 seconds
#
# Revision: 2
# Processed by: cddbd v1.5.1PL0 Copyright (c) Steve Scherf et al.
# Submitted via: OrangeCD 5.2
#
DISCID=e20ab210
DTITLE=Various Artist - The Blues The Best Of 1920-1996   Disc 2 Pre-War Blues
DYEAR=2000
DGENRE=Blues Compilation
TTITLE0=Josh White - Welfare Blues - 1934
TTITLE1=Leadbelly - Mister Tom Hughes' Town - 1935
TTITLE2=Robert Johnson - Cross Road Blues - 1936
TTITLE3=The Boogie Woogie Boys - Boogie Woogie Prayer Part 1 - 1938
TTITLE4=Pete Johnson and Joe Turner - Roll 'Em Pete - 1938
TTITLE5=Blind Boy Fuller - I'm a Stranger Here - 1939
TTITLE6=Bukka White - Parchman Farm Blues - 1940
TTITLE7=Brownie McGhee - Death of Blind Boy Fuller - 1941
TTITLE8=Bib Bill Broonzy - Key to the Highway - 1941
TTITLE9=Tont Hollins - Cross Cut Saw Blues - 1941
TTITLE10=Champion Jack Dupree - Junker Blues - 1941
TTITLE11=Big Maceo Merriweather - Macy Special - 1945
TTITLE12=Muddy Waters - Hard Day Blues - 1946
TTITLE13=Big Three Trio - If the Sea Was Whiskey - 1947
TTITLE14=Big Joe Williams - Baby Please Don't Go - 1947
TTITLE15=Lightning Hopkins - Contrary Mary - 1950
EXTD=
EXTT0=
EXTT1=
EXTT2=
EXTT3=
EXTT4=
EXTT5=
EXTT6=
EXTT7=
EXTT8=
EXTT9=
EXTT10=
EXTT11=
EXTT12=
EXTT13=
EXTT14=
EXTT15=
PLAYORDER=
